<svg width="120" height="80" viewBox="0 0 120 80" fill="none" xmlns="http://www.w3.org/2000/svg">
  <!-- White background rectangle -->
  <rect width="120" height="80" fill="white"/>
  
  <!-- Dry Dock Support Structure - Left X -->
  <path d="M10 65 L20 75 M20 65 L10 75" stroke="#1e3a8a" stroke-width="2.5" stroke-linecap="round"/>
  <line x1="10" y1="75" x2="20" y2="75" stroke="#1e3a8a" stroke-width="2.5"/>
  
  <!-- Dry Dock Support Structure - Right X -->
  <path d="M100 65 L110 75 M110 65 L100 75" stroke="#1e3a8a" stroke-width="2.5" stroke-linecap="round"/>
  <line x1="100" y1="75" x2="110" y2="75" stroke="#1e3a8a" stroke-width="2.5"/>
  
  <!-- Ship Hull (tugboat/cargo ship style) -->
  <path d="M15 55 Q25 50 35 50 L45 50 Q55 50 65 52 L75 52 Q85 52 95 55 L100 58 L98 62 L90 60 L80 60 L70 60 L60 60 L50 60 L40 60 L30 60 L20 60 L15 62 Z" fill="#1e3a8a" stroke="#1e40af" stroke-width="1.5"/>
  
  <!-- Ship Deck -->
  <line x1="25" y1="55" x2="95" y2="55" stroke="#1e40af" stroke-width="1.5"/>
  
  <!-- Ship Superstructure (main cabin) -->
  <rect x="40" y="40" width="35" height="18" fill="#1e3a8a" stroke="#1e40af" stroke-width="1.5" rx="2"/>
  
  <!-- Ship Bridge (upper structure) -->
  <rect x="50" y="32" width="20" height="10" fill="#1e3a8a" stroke="#1e40af" stroke-width="1.5" rx="1"/>
  
  <!-- Mast -->
  <line x1="60" y1="32" x2="60" y2="18" stroke="#1e40af" stroke-width="2.5" stroke-linecap="round"/>
  
  <!-- Flag on Mast -->
  <path d="M60 18 L72 22 L60 26 Z" fill="#2563eb"/>
  
  <!-- Ship Windows -->
  <circle cx="48" cy="49" r="2" fill="#60a5fa"/>
  <circle cx="55" cy="49" r="2" fill="#60a5fa"/>
  <circle cx="62" cy="49" r="2" fill="#60a5fa"/>
  <circle cx="69" cy="49" r="2" fill="#60a5fa"/>
</svg>
